Exact Audio Copy V0.99 prebeta 1 from 25. May 2007

EAC 抓取日志文件从6. 一月 2011, 19:03

于文华&尹相杰 / 20世纪中华歌坛名人百集珍藏版

使用驱动器  ：PIONEER DVD-RW  DVR-115   Adapter: 0  ID: 0

读取模式     : 保护
使用精确流   : 是
废除音频缓冲 : 是
使用 C2 指针 : 否

组合读/写偏移校正              : 48
读取 Lead-In 和 Lead-Out       : 否
用静音填充抓取中丢失偏移的采样 : 是
去除首尾静音块                 : 否
已用接口                       : 已安装外部 ASPI 接口

所用输出格式 : 内部 WAV 函数
样本格式     : 44.100 Hz;16 Bit;立体声
使用压缩偏移 : 48


被抓轨 CD 的 TOC

     音轨 |   开始   |   长度   | 起始扇区 | 结尾扇区 
    --------------------------------------------------
       1  |  0:00.32 |  5:06.00 |      32  |   22981  
       2  |  5:06.32 |  4:23.70 |   22982  |   42776  
       3  |  9:30.27 |  4:23.63 |   42777  |   62564  
       4  | 13:54.15 |  4:33.07 |   62565  |   83046  
       5  | 18:27.22 |  3:53.08 |   83047  |  100529  
       6  | 22:20.30 |  3:35.67 |  100530  |  116721  
       7  | 25:56.22 |  3:44.73 |  116722  |  133594  
       8  | 29:41.20 |  5:09.00 |  133595  |  156769  
       9  | 34:50.20 |  5:04.05 |  156770  |  179574  
      10  | 39:54.25 |  3:09.02 |  179575  |  193751  
      11  | 43:03.27 |  3:45.65 |  193752  |  210691  
      12  | 46:49.17 |  5:01.15 |  210692  |  233281  
      13  | 51:50.32 |  5:28.53 |  233282  |  257934  


范围状态及错误

已选择范围

     文件名 E:\文件夹\20世纪中华歌坛名人百集珍藏版-于文华&尹相杰[lwg188原创]\于文华&尹相杰 - 20世纪中华歌坛名人百集珍藏版.wav

     峰值电平 100.0 %
     范围质量 100.0 %
     复制 CRC E6F09CAD
     复制成功

没有错误发生

状态报告结尾
